<svg width="594" height="593" viewBox="0 0 594 593" fill="none" xmlns="http://www.w3.org/2000/svg">
<path d="M360 1V592" stroke="url(#paint0_linear_968_4847)" stroke-width="1.5" stroke-linecap="round" stroke-linejoin="round"/>
<path d="M373 1V592" stroke="url(#paint1_linear_968_4847)" stroke-width="1.5" stroke-linecap="round" stroke-linejoin="round"/>
<path d="M417 1V592" stroke="url(#paint2_linear_968_4847)" stroke-width="1.5" stroke-linecap="round" stroke-linejoin="round"/>
<path d="M193 1V592" stroke="url(#paint3_linear_968_4847)" stroke-width="1.5" stroke-linecap="round" stroke-linejoin="round"/>
<path d="M103 1V592" stroke="url(#paint4_linear_968_4847)" stroke-width="1.5" stroke-linecap="round" stroke-linejoin="round"/>
<path d="M538 1V592" stroke="url(#paint5_linear_968_4847)" stroke-width="1.5" stroke-linecap="round" stroke-linejoin="round"/>
<path d="M283 1V592" stroke="url(#paint6_linear_968_4847)" stroke-width="1.5" stroke-linecap="round" stroke-linejoin="round"/>
<g filter="url(#filter0_d_968_4847)">
<rect x="83" y="89" width="481" height="299" rx="15" fill="white"/>
<rect x="83" y="89" width="481" height="299" rx="15" fill="url(#paint7_linear_968_4847)"/>
<rect x="83.5" y="89.5" width="480" height="298" rx="14.5" stroke="black"/>
</g>
<path d="M98 89.5H170.5V387.5H98C89.9919 387.5 83.5 381.008 83.5 373V104C83.5 95.9919 89.9919 89.5 98 89.5Z" fill="#ABB4FE" stroke="black"/>
<rect x="103" y="97" width="8" height="17" rx="4" fill="black"/>
<rect x="113" y="97" width="7" height="17" rx="3.5" fill="black"/>
<rect x="123" y="97" width="6" height="17" rx="3" fill="black"/>
<rect x="133" y="97" width="5" height="17" rx="2.5" fill="black"/>
<rect x="143" y="97" width="4" height="17" rx="2" fill="black"/>
<rect x="153" y="97" width="3" height="17" rx="1.5" fill="black"/>
<rect x="522.5" y="95.5" width="16" height="16" rx="8" fill="#F7D04D" stroke="black"/>
<rect x="497.5" y="95.5" width="16" height="16" rx="8" fill="#F7D04D" stroke="black"/>
<rect x="193.5" y="95.5" width="293" height="16" rx="8" fill="white" stroke="black"/>
<rect x="193.5" y="122.5" width="166" height="99" rx="9.5" fill="white" stroke="black"/>
<path d="M257.191 176.924C230.611 178.37 194 158.702 194 158.702V221H359V148C359 148 352.48 161.884 335.93 161.884C319.38 161.884 311.025 152.96 295.307 155.231C276.698 157.92 283.772 175.478 257.191 176.924Z" fill="url(#paint8_linear_968_4847)"/>
<path d="M194 158.702C194 158.702 230.611 178.37 257.191 176.924C283.772 175.478 276.698 157.92 295.307 155.231C311.025 152.96 319.38 161.884 335.93 161.884C352.48 161.884 359 148 359 148" stroke="#8084A0" stroke-width="1.5" stroke-linecap="round" stroke-linejoin="round"/>
<rect x="193.5" y="232.5" width="345" height="39" rx="9.5" fill="white" stroke="black"/>
<rect x="193.5" y="282.5" width="345" height="39" rx="9.5" fill="white" stroke="black"/>
<rect x="193.5" y="332.5" width="345" height="39" rx="9.5" fill="white" stroke="black"/>
<g filter="url(#filter1_b_968_4847)">
<rect x="193" y="382" width="346" height="40" rx="10" fill="white" fill-opacity="0.75"/>
<rect x="193.5" y="382.5" width="345" height="39" rx="9.5" stroke="#8A95F8" stroke-opacity="0.75"/>
</g>
<path d="M303 392H342" stroke="#8A95F8" stroke-opacity="0.75" stroke-width="1.5" stroke-linecap="round" stroke-linejoin="round"/>
<path d="M303 399H351" stroke="#8A95F8" stroke-opacity="0.75" stroke-width="1.5" stroke-linecap="round" stroke-linejoin="round"/>
<path d="M303 406H330" stroke="#8A95F8" stroke-opacity="0.75" stroke-width="1.5" stroke-linecap="round" stroke-linejoin="round"/>
<path d="M303 413H339" stroke="#8A95F8" stroke-opacity="0.75" stroke-width="1.5" stroke-linecap="round" stroke-linejoin="round"/>
<rect x="293.5" y="390.5" width="5" height="23" rx="1.5" fill="#D99BF9" fill-opacity="0.75" stroke="#8A95F8"/>
<path d="M213 392H252" stroke="#8A95F8" stroke-opacity="0.75" stroke-width="1.5" stroke-linecap="round" stroke-linejoin="round"/>
<path d="M213 399H261" stroke="#8A95F8" stroke-opacity="0.75" stroke-width="1.5" stroke-linecap="round" stroke-linejoin="round"/>
<path d="M213 406H240" stroke="#8A95F8" stroke-opacity="0.75" stroke-width="1.5" stroke-linecap="round" stroke-linejoin="round"/>
<path d="M213 413H249" stroke="#8A95F8" stroke-opacity="0.75" stroke-width="1.5" stroke-linecap="round" stroke-linejoin="round"/>
<rect x="203.5" y="390.5" width="5" height="23" rx="1.5" fill="#D99BF9" fill-opacity="0.75" stroke="#8A95F8"/>
<path d="M393 392H432" stroke="#8A95F8" stroke-opacity="0.75" stroke-width="1.5" stroke-linecap="round" stroke-linejoin="round"/>
<path d="M393 399H441" stroke="#8A95F8" stroke-opacity="0.75" stroke-width="1.5" stroke-linecap="round" stroke-linejoin="round"/>
<path d="M393 406H420" stroke="#8A95F8" stroke-opacity="0.75" stroke-width="1.5" stroke-linecap="round" stroke-linejoin="round"/>
<path d="M393 413H429" stroke="#8A95F8" stroke-opacity="0.75" stroke-width="1.5" stroke-linecap="round" stroke-linejoin="round"/>
<rect x="383.5" y="390.5" width="5" height="23" rx="1.5" fill="#D99BF9" fill-opacity="0.75" stroke="#8A95F8"/>
<g filter="url(#filter2_b_968_4847)">
<rect x="193" y="432" width="346" height="40" rx="10" fill="white" fill-opacity="0.25"/>
<rect x="193.5" y="432.5" width="345" height="39" rx="9.5" stroke="#8A95F8" stroke-opacity="0.5"/>
</g>
<path d="M483 442H522" stroke="#8A95F8" stroke-opacity="0.5" stroke-width="1.5" stroke-linecap="round" stroke-linejoin="round"/>
<path d="M483 449H531" stroke="#8A95F8" stroke-opacity="0.5" stroke-width="1.5" stroke-linecap="round" stroke-linejoin="round"/>
<path d="M483 456H510" stroke="#8A95F8" stroke-opacity="0.5" stroke-width="1.5" stroke-linecap="round" stroke-linejoin="round"/>
<path d="M483 463H519" stroke="#8A95F8" stroke-opacity="0.5" stroke-width="1.5" stroke-linecap="round" stroke-linejoin="round"/>
<rect x="473.5" y="440.5" width="5" height="23" rx="1.5" stroke="#8A95F8" stroke-opacity="0.5"/>
<path d="M303 442H342" stroke="#8A95F8" stroke-opacity="0.5" stroke-width="1.5" stroke-linecap="round" stroke-linejoin="round"/>
<path d="M303 449H351" stroke="#8A95F8" stroke-opacity="0.5" stroke-width="1.5" stroke-linecap="round" stroke-linejoin="round"/>
<path d="M303 456H330" stroke="#8A95F8" stroke-opacity="0.5" stroke-width="1.5" stroke-linecap="round" stroke-linejoin="round"/>
<path d="M303 463H339" stroke="#8A95F8" stroke-opacity="0.5" stroke-width="1.5" stroke-linecap="round" stroke-linejoin="round"/>
<rect x="293" y="440" width="6" height="24" rx="2" fill="#D99BF9" fill-opacity="0.25"/>
<rect x="293.5" y="440.5" width="5" height="23" rx="1.5" stroke="#8A95F8" stroke-opacity="0.5"/>
<path d="M213 442H252" stroke="#8A95F8" stroke-opacity="0.5" stroke-width="1.5" stroke-linecap="round" stroke-linejoin="round"/>
<path d="M213 449H261" stroke="#8A95F8" stroke-opacity="0.5" stroke-width="1.5" stroke-linecap="round" stroke-linejoin="round"/>
<path d="M213 456H240" stroke="#8A95F8" stroke-opacity="0.5" stroke-width="1.5" stroke-linecap="round" stroke-linejoin="round"/>
<path d="M213 463H249" stroke="#8A95F8" stroke-opacity="0.5" stroke-width="1.5" stroke-linecap="round" stroke-linejoin="round"/>
<rect x="203" y="440" width="6" height="24" rx="2" fill="#D99BF9" fill-opacity="0.25"/>
<rect x="203.5" y="440.5" width="5" height="23" rx="1.5" stroke="#8A95F8" stroke-opacity="0.5"/>
<path d="M393 442H432" stroke="#8A95F8" stroke-opacity="0.5" stroke-width="1.5" stroke-linecap="round" stroke-linejoin="round"/>
<path d="M393 449H441" stroke="#8A95F8" stroke-opacity="0.5" stroke-width="1.5" stroke-linecap="round" stroke-linejoin="round"/>
<path d="M393 456H420" stroke="#8A95F8" stroke-opacity="0.5" stroke-width="1.5" stroke-linecap="round" stroke-linejoin="round"/>
<path d="M393 463H429" stroke="#8A95F8" stroke-opacity="0.5" stroke-width="1.5" stroke-linecap="round" stroke-linejoin="round"/>
<rect x="383" y="440" width="6" height="24" rx="2" fill="#D99BF9" fill-opacity="0.25"/>
<rect x="383.5" y="440.5" width="5" height="23" rx="1.5" stroke="#8A95F8" stroke-opacity="0.5"/>
<g filter="url(#filter3_b_968_4847)">
<rect x="193" y="482" width="346" height="40" rx="10" fill="white" fill-opacity="0.1"/>
<rect x="193.5" y="482.5" width="345" height="39" rx="9.5" stroke="#8A95F8" stroke-opacity="0.25"/>
</g>
<path d="M303 492H342" stroke="#8A95F8" stroke-opacity="0.25" stroke-width="1.5" stroke-linecap="round" stroke-linejoin="round"/>
<path d="M303 499H351" stroke="#8A95F8" stroke-opacity="0.25" stroke-width="1.5" stroke-linecap="round" stroke-linejoin="round"/>
<path d="M303 506H330" stroke="#8A95F8" stroke-opacity="0.25" stroke-width="1.5" stroke-linecap="round" stroke-linejoin="round"/>
<path d="M303 513H339" stroke="#8A95F8" stroke-opacity="0.25" stroke-width="1.5" stroke-linecap="round" stroke-linejoin="round"/>
<rect x="293" y="490" width="6" height="24" rx="2" fill="#D99BF9" fill-opacity="0.15"/>
<rect x="293.5" y="490.5" width="5" height="23" rx="1.5" stroke="#8A95F8" stroke-opacity="0.25"/>
<path d="M213 492H252" stroke="#8A95F8" stroke-opacity="0.25" stroke-width="1.5" stroke-linecap="round" stroke-linejoin="round"/>
<path d="M213 499H261" stroke="#8A95F8" stroke-opacity="0.25" stroke-width="1.5" stroke-linecap="round" stroke-linejoin="round"/>
<path d="M213 506H240" stroke="#8A95F8" stroke-opacity="0.25" stroke-width="1.5" stroke-linecap="round" stroke-linejoin="round"/>
<path d="M213 513H249" stroke="#8A95F8" stroke-opacity="0.25" stroke-width="1.5" stroke-linecap="round" stroke-linejoin="round"/>
<rect x="203" y="490" width="6" height="24" rx="2" fill="#D99BF9" fill-opacity="0.15"/>
<rect x="203.5" y="490.5" width="5" height="23" rx="1.5" stroke="#8A95F8" stroke-opacity="0.25"/>
<path d="M393 492H432" stroke="#8A95F8" stroke-opacity="0.25" stroke-width="1.5" stroke-linecap="round" stroke-linejoin="round"/>
<path d="M393 499H441" stroke="#8A95F8" stroke-opacity="0.25" stroke-width="1.5" stroke-linecap="round" stroke-linejoin="round"/>
<path d="M393 506H420" stroke="#8A95F8" stroke-opacity="0.25" stroke-width="1.5" stroke-linecap="round" stroke-linejoin="round"/>
<path d="M393 513H429" stroke="#8A95F8" stroke-opacity="0.25" stroke-width="1.5" stroke-linecap="round" stroke-linejoin="round"/>
<rect x="383" y="490" width="6" height="24" rx="2" fill="#D99BF9" fill-opacity="0.15"/>
<rect x="383.5" y="490.5" width="5" height="23" rx="1.5" stroke="#8A95F8" stroke-opacity="0.25"/>
<path d="M483 492H522" stroke="#8A95F8" stroke-opacity="0.25" stroke-width="1.5" stroke-linecap="round" stroke-linejoin="round"/>
<path d="M483 499H531" stroke="#8A95F8" stroke-opacity="0.25" stroke-width="1.5" stroke-linecap="round" stroke-linejoin="round"/>
<path d="M483 506H510" stroke="#8A95F8" stroke-opacity="0.25" stroke-width="1.5" stroke-linecap="round" stroke-linejoin="round"/>
<path d="M483 513H519" stroke="#8A95F8" stroke-opacity="0.25" stroke-width="1.5" stroke-linecap="round" stroke-linejoin="round"/>
<rect x="473" y="490" width="6" height="24" rx="2" fill="#D99BF9" fill-opacity="0.15"/>
<rect x="473.5" y="490.5" width="5" height="23" rx="1.5" stroke="#8A95F8" stroke-opacity="0.25"/>
<rect x="372.5" y="122.5" width="166" height="99" rx="9.5" fill="white" stroke="black"/>
<path d="M373 197C373 197 409.611 178.37 436.191 176.924C462.772 175.478 455.698 157.92 474.307 155.231C490.025 152.96 498.38 161.884 514.93 161.884C531.48 161.884 538 148 538 148" stroke="#8084A0" stroke-width="1.5" stroke-linecap="round" stroke-linejoin="round"/>
<path d="M436.191 176.924C409.611 178.37 373 196.5 373 196.5V221H538V148C538 148 531.48 161.884 514.93 161.884C498.38 161.884 490.025 152.96 474.307 155.231C455.698 157.92 462.772 175.478 436.191 176.924Z" fill="url(#paint9_linear_968_4847)"/>
<rect x="452.5" y="232.5" width="86" height="39" rx="9.5" fill="white" stroke="black"/>
<rect x="452.5" y="282.5" width="86" height="39" rx="9.5" fill="white" stroke="black"/>
<rect x="452.5" y="332.5" width="86" height="39" rx="9.5" fill="white" stroke="black"/>
<rect x="103.5" y="131.5" width="52" height="13" rx="4.5" fill="url(#paint10_linear_968_4847)" stroke="black"/>
<rect x="103.5" y="154.5" width="52" height="13" rx="4.5" fill="url(#paint11_linear_968_4847)" stroke="black"/>
<rect x="103.5" y="177.5" width="52" height="13" rx="4.5" fill="url(#paint12_linear_968_4847)" stroke="black"/>
<rect x="103.5" y="200.5" width="52" height="13" rx="4.5" fill="url(#paint13_linear_968_4847)" stroke="black"/>
<rect x="103.5" y="223.5" width="52" height="13" rx="4.5" fill="url(#paint14_linear_968_4847)" stroke="black"/>
<rect x="103.5" y="246.5" width="52" height="13" rx="4.5" fill="url(#paint15_linear_968_4847)" stroke="black"/>
<rect x="103.5" y="269.5" width="52" height="13" rx="4.5" fill="url(#paint16_linear_968_4847)" stroke="black"/>
<path d="M213 242H252" stroke="black" stroke-width="1.5" stroke-linecap="round" stroke-linejoin="round"/>
<path d="M213 249H261" stroke="black" stroke-width="1.5" stroke-linecap="round" stroke-linejoin="round"/>
<path d="M213 256H240" stroke="black" stroke-width="1.5" stroke-linecap="round" stroke-linejoin="round"/>
<path d="M213 263H249" stroke="black" stroke-width="1.5" stroke-linecap="round" stroke-linejoin="round"/>
<path d="M213 242H252" stroke="black" stroke-width="1.5" stroke-linecap="round" stroke-linejoin="round"/>
<path d="M213 249H261" stroke="black" stroke-width="1.5" stroke-linecap="round" stroke-linejoin="round"/>
<path d="M213 256H240" stroke="black" stroke-width="1.5" stroke-linecap="round" stroke-linejoin="round"/>
<path d="M213 263H249" stroke="black" stroke-width="1.5" stroke-linecap="round" stroke-linejoin="round"/>
<path d="M213 242H252" stroke="#B3B6CD" stroke-width="1.5" stroke-linecap="round" stroke-linejoin="round"/>
<path d="M213 249H261" stroke="#B3B6CD" stroke-width="1.5" stroke-linecap="round" stroke-linejoin="round"/>
<path d="M213 256H240" stroke="#B3B6CD" stroke-width="1.5" stroke-linecap="round" stroke-linejoin="round"/>
<path d="M213 263H249" stroke="#B3B6CD" stroke-width="1.5" stroke-linecap="round" stroke-linejoin="round"/>
<path d="M213 292H252" stroke="#B3B6CD" stroke-width="1.5" stroke-linecap="round" stroke-linejoin="round"/>
<path d="M213 299H261" stroke="#B3B6CD" stroke-width="1.5" stroke-linecap="round" stroke-linejoin="round"/>
<path d="M213 306H240" stroke="#B3B6CD" stroke-width="1.5" stroke-linecap="round" stroke-linejoin="round"/>
<path d="M213 313H249" stroke="#B3B6CD" stroke-width="1.5" stroke-linecap="round" stroke-linejoin="round"/>
<path d="M213 342H252" stroke="#B3B6CD" stroke-width="1.5" stroke-linecap="round" stroke-linejoin="round"/>
<path d="M213 349H261" stroke="#B3B6CD" stroke-width="1.5" stroke-linecap="round" stroke-linejoin="round"/>
<path d="M213 356H240" stroke="#B3B6CD" stroke-width="1.5" stroke-linecap="round" stroke-linejoin="round"/>
<path d="M213 363H249" stroke="#B3B6CD" stroke-width="1.5" stroke-linecap="round" stroke-linejoin="round"/>
<path d="M303 242H342" stroke="#B3B6CD" stroke-width="1.5" stroke-linecap="round" stroke-linejoin="round"/>
<path d="M303 249H351" stroke="#B3B6CD" stroke-width="1.5" stroke-linecap="round" stroke-linejoin="round"/>
<path d="M303 256H330" stroke="#B3B6CD" stroke-width="1.5" stroke-linecap="round" stroke-linejoin="round"/>
<path d="M303 263H339" stroke="#B3B6CD" stroke-width="1.5" stroke-linecap="round" stroke-linejoin="round"/>
<path d="M303 292H342" stroke="#B3B6CD" stroke-width="1.5" stroke-linecap="round" stroke-linejoin="round"/>
<path d="M303 299H351" stroke="#B3B6CD" stroke-width="1.5" stroke-linecap="round" stroke-linejoin="round"/>
<path d="M303 306H330" stroke="#B3B6CD" stroke-width="1.5" stroke-linecap="round" stroke-linejoin="round"/>
<path d="M303 313H339" stroke="#B3B6CD" stroke-width="1.5" stroke-linecap="round" stroke-linejoin="round"/>
<path d="M303 342H342" stroke="#B3B6CD" stroke-width="1.5" stroke-linecap="round" stroke-linejoin="round"/>
<path d="M303 349H351" stroke="#B3B6CD" stroke-width="1.5" stroke-linecap="round" stroke-linejoin="round"/>
<path d="M303 356H330" stroke="#B3B6CD" stroke-width="1.5" stroke-linecap="round" stroke-linejoin="round"/>
<path d="M303 363H339" stroke="#B3B6CD" stroke-width="1.5" stroke-linecap="round" stroke-linejoin="round"/>
<path d="M393 242H432" stroke="#B3B6CD" stroke-width="1.5" stroke-linecap="round" stroke-linejoin="round"/>
<path d="M393 249H441" stroke="#B3B6CD" stroke-width="1.5" stroke-linecap="round" stroke-linejoin="round"/>
<path d="M393 256H420" stroke="#B3B6CD" stroke-width="1.5" stroke-linecap="round" stroke-linejoin="round"/>
<path d="M393 263H429" stroke="#B3B6CD" stroke-width="1.5" stroke-linecap="round" stroke-linejoin="round"/>
<path d="M393 292H432" stroke="#B3B6CD" stroke-width="1.5" stroke-linecap="round" stroke-linejoin="round"/>
<path d="M393 299H441" stroke="#B3B6CD" stroke-width="1.5" stroke-linecap="round" stroke-linejoin="round"/>
<path d="M393 306H420" stroke="#B3B6CD" stroke-width="1.5" stroke-linecap="round" stroke-linejoin="round"/>
<path d="M393 313H429" stroke="#B3B6CD" stroke-width="1.5" stroke-linecap="round" stroke-linejoin="round"/>
<path d="M393 342H432" stroke="#B3B6CD" stroke-width="1.5" stroke-linecap="round" stroke-linejoin="round"/>
<path d="M393 349H441" stroke="#B3B6CD" stroke-width="1.5" stroke-linecap="round" stroke-linejoin="round"/>
<path d="M393 356H420" stroke="#B3B6CD" stroke-width="1.5" stroke-linecap="round" stroke-linejoin="round"/>
<path d="M393 363H429" stroke="#B3B6CD" stroke-width="1.5" stroke-linecap="round" stroke-linejoin="round"/>
<g filter="url(#filter4_d_968_4847)">
<rect y="155" width="224" height="47" rx="15" fill="white"/>
<rect x="0.5" y="155.5" width="223" height="46" rx="14.5" stroke="black"/>
</g>
<rect x="14" y="170" width="2" height="17" rx="1" fill="#D99BF9"/>
<rect x="10" y="170" width="2" height="17" rx="1" fill="#D99BF9"/>
<path d="M27.096 185C26.9893 185 26.8987 184.963 26.824 184.888C26.7493 184.813 26.712 184.723 26.712 184.616V175.768H23.752C23.6453 175.768 23.5547 175.731 23.48 175.656C23.4053 175.581 23.368 175.491 23.368 175.384V174.2C23.368 174.083 23.4053 173.987 23.48 173.912C23.5547 173.837 23.6453 173.8 23.752 173.8H31.912C32.0293 173.8 32.1253 173.837 32.2 173.912C32.2747 173.987 32.312 174.083 32.312 174.2V175.384C32.312 175.491 32.2747 175.581 32.2 175.656C32.1253 175.731 32.0293 175.768 31.912 175.768H28.968V184.616C28.968 184.723 28.9307 184.813 28.856 184.888C28.7813 184.963 28.6853 185 28.568 185H27.096ZM34.722 185.16C34.1673 185.16 33.666 185.053 33.218 184.84C32.77 184.616 32.4127 184.323 32.146 183.96C31.89 183.587 31.762 183.171 31.762 182.712C31.762 181.965 32.0607 181.373 32.658 180.936C33.266 180.488 34.066 180.189 35.058 180.04L37.25 179.72V179.384C37.25 178.936 37.138 178.589 36.914 178.344C36.69 178.099 36.306 177.976 35.762 177.976C35.378 177.976 35.0633 178.056 34.818 178.216C34.5833 178.365 34.4073 178.568 34.29 178.824C34.2047 178.963 34.082 179.032 33.922 179.032H32.658C32.5407 179.032 32.45 179 32.386 178.936C32.3327 178.872 32.306 178.787 32.306 178.68C32.3167 178.509 32.386 178.301 32.514 178.056C32.642 177.811 32.8447 177.576 33.122 177.352C33.3993 177.117 33.7567 176.92 34.194 176.76C34.6313 176.6 35.1593 176.52 35.778 176.52C36.45 176.52 37.0153 176.605 37.474 176.776C37.9433 176.936 38.3167 177.155 38.594 177.432C38.8713 177.709 39.074 178.035 39.202 178.408C39.33 178.781 39.394 179.176 39.394 179.592V184.616C39.394 184.723 39.3567 184.813 39.282 184.888C39.2073 184.963 39.1167 185 39.01 185H37.714C37.5967 185 37.5007 184.963 37.426 184.888C37.362 184.813 37.33 184.723 37.33 184.616V183.992C37.1913 184.195 37.0047 184.387 36.77 184.568C36.5353 184.739 36.2473 184.883 35.906 185C35.5753 185.107 35.1807 185.16 34.722 185.16ZM35.266 183.64C35.6393 183.64 35.9753 183.56 36.274 183.4C36.5833 183.24 36.8233 182.995 36.994 182.664C37.1753 182.323 37.266 181.896 37.266 181.384V181.048L35.666 181.304C35.0367 181.4 34.5673 181.555 34.258 181.768C33.9487 181.981 33.794 182.243 33.794 182.552C33.794 182.787 33.8633 182.989 34.002 183.16C34.1513 183.32 34.338 183.443 34.562 183.528C34.786 183.603 35.0207 183.64 35.266 183.64ZM44.5986 185.16C43.9586 185.16 43.4093 185.085 42.9506 184.936C42.5026 184.787 42.1346 184.6 41.8466 184.376C41.5586 184.152 41.3453 183.928 41.2066 183.704C41.068 183.48 40.9933 183.293 40.9826 183.144C40.972 183.027 41.004 182.936 41.0786 182.872C41.164 182.797 41.2546 182.76 41.3506 182.76H42.6146C42.6573 182.76 42.6946 182.765 42.7266 182.776C42.7586 182.787 42.8013 182.819 42.8546 182.872C42.9933 182.989 43.1373 183.112 43.2866 183.24C43.4466 183.368 43.6333 183.48 43.8466 183.576C44.06 183.661 44.3266 183.704 44.6466 183.704C45.0626 183.704 45.4093 183.624 45.6866 183.464C45.9746 183.293 46.1186 183.053 46.1186 182.744C46.1186 182.52 46.0546 182.339 45.9266 182.2C45.8093 182.061 45.5853 181.939 45.2546 181.832C44.924 181.715 44.4546 181.592 43.8466 181.464C43.2493 181.325 42.7533 181.149 42.3586 180.936C41.964 180.723 41.6706 180.456 41.4786 180.136C41.2866 179.816 41.1906 179.443 41.1906 179.016C41.1906 178.6 41.3133 178.205 41.5586 177.832C41.8146 177.448 42.188 177.133 42.6786 176.888C43.18 176.643 43.7986 176.52 44.5346 176.52C45.1106 176.52 45.612 176.595 46.0386 176.744C46.4653 176.883 46.8173 177.059 47.0946 177.272C47.3826 177.485 47.6013 177.704 47.7506 177.928C47.9 178.141 47.98 178.328 47.9906 178.488C48.0013 178.605 47.9693 178.701 47.8946 178.776C47.82 178.84 47.7346 178.872 47.6386 178.872H46.4546C46.4013 178.872 46.3533 178.861 46.3106 178.84C46.268 178.819 46.2253 178.792 46.1826 178.76C46.0653 178.653 45.9373 178.541 45.7986 178.424C45.66 178.307 45.4893 178.205 45.2866 178.12C45.0946 178.024 44.8386 177.976 44.5186 177.976C44.1133 177.976 43.804 178.067 43.5906 178.248C43.3773 178.419 43.2706 178.637 43.2706 178.904C43.2706 179.085 43.3186 179.245 43.4146 179.384C43.5213 179.512 43.7293 179.635 44.0386 179.752C44.348 179.869 44.8173 179.992 45.4466 180.12C46.1613 180.248 46.7266 180.44 47.1426 180.696C47.5693 180.941 47.868 181.229 48.0386 181.56C48.22 181.88 48.3106 182.237 48.3106 182.632C48.3106 183.112 48.1666 183.544 47.8786 183.928C47.6013 184.312 47.1853 184.616 46.6306 184.84C46.0866 185.053 45.4093 185.16 44.5986 185.16ZM50.3623 185C50.2556 185 50.1649 184.963 50.0903 184.888C50.0156 184.813 49.9783 184.723 49.9783 184.616V174.024C49.9783 173.917 50.0156 173.827 50.0903 173.752C50.1649 173.677 50.2556 173.64 50.3623 173.64H51.6583C51.7756 173.64 51.8663 173.677 51.9303 173.752C52.0049 173.827 52.0423 173.917 52.0423 174.024V179.496L54.7303 176.952C54.8263 176.867 54.9116 176.803 54.9863 176.76C55.0609 176.707 55.1729 176.68 55.3223 176.68H56.8103C56.9169 176.68 57.0023 176.712 57.0663 176.776C57.1303 176.84 57.1623 176.925 57.1623 177.032C57.1623 177.075 57.1516 177.123 57.1302 177.176C57.1089 177.229 57.0663 177.277 57.0023 177.32L53.7063 180.408L57.4023 184.376C57.5089 184.483 57.5623 184.573 57.5623 184.648C57.5623 184.755 57.5249 184.84 57.4503 184.904C57.3863 184.968 57.3063 185 57.2103 185H55.6903C55.5303 185 55.4129 184.979 55.3383 184.936C55.2743 184.883 55.1943 184.813 55.0983 184.728L52.0423 181.512V184.616C52.0423 184.723 52.0049 184.813 51.9303 184.888C51.8663 184.963 51.7756 185 51.6583 185H50.3623ZM63.81 184.376C63.714 184.376 63.6287 184.344 63.554 184.28C63.49 184.216 63.4633 184.136 63.474 184.04L63.73 182.296H62.37C62.2633 182.296 62.1727 182.264 62.098 182.2C62.034 182.125 62.002 182.035 62.002 181.928V181.032C62.002 180.915 62.034 180.824 62.098 180.76C62.1727 180.696 62.2633 180.664 62.37 180.664H63.97L64.338 178.232H62.786C62.6793 178.232 62.5887 178.2 62.514 178.136C62.45 178.061 62.418 177.971 62.418 177.864V176.968C62.418 176.851 62.45 176.76 62.514 176.696C62.5887 176.632 62.6793 176.6 62.786 176.6H64.578L64.85 174.856C64.8713 174.771 64.9087 174.696 64.962 174.632C65.026 174.557 65.1113 174.52 65.218 174.52H66.146C66.242 174.52 66.322 174.552 66.386 174.616C66.45 174.68 66.4767 174.76 66.466 174.856L66.21 176.6H68.21L68.482 174.856C68.5033 174.771 68.5407 174.696 68.594 174.632C68.658 174.557 68.7433 174.52 68.85 174.52H69.778C69.874 174.52 69.954 174.552 70.018 174.616C70.082 174.68 70.1087 174.76 70.098 174.856L69.842 176.6H71.186C71.2927 176.6 71.378 176.632 71.442 176.696C71.5167 176.76 71.554 176.851 71.554 176.968V177.864C71.554 177.971 71.5167 178.061 71.442 178.136C71.378 178.2 71.2927 178.232 71.186 178.232H69.602L69.25 180.664H70.77C70.8767 180.664 70.962 180.696 71.026 180.76C71.1007 180.824 71.138 180.915 71.138 181.032V181.928C71.138 182.035 71.1007 182.125 71.026 182.2C70.962 182.264 70.8767 182.296 70.77 182.296H68.994L68.738 184.04C68.706 184.264 68.5833 184.376 68.37 184.376H67.442C67.346 184.376 67.2607 184.344 67.186 184.28C67.122 184.216 67.0953 184.136 67.106 184.04L67.362 182.296H65.362L65.106 184.04C65.074 184.264 64.9513 184.376 64.738 184.376H63.81ZM65.618 180.664H67.602L67.97 178.232H65.97L65.618 180.664ZM76.7445 185C76.6272 185 76.5312 184.963 76.4565 184.888C76.3925 184.813 76.3605 184.723 76.3605 184.616V176.328L73.9285 178.2C73.8325 178.264 73.7365 178.291 73.6405 178.28C73.5445 178.259 73.4592 178.2 73.3845 178.104L72.7125 177.24C72.6485 177.144 72.6218 177.043 72.6325 176.936C72.6538 176.829 72.7125 176.744 72.8085 176.68L76.3925 173.912C76.4565 173.859 76.5205 173.827 76.5845 173.816C76.6485 173.805 76.7178 173.8 76.7925 173.8H78.2005C78.3072 173.8 78.3978 173.837 78.4725 173.912C78.5472 173.987 78.5845 174.077 78.5845 174.184V184.616C78.5845 184.723 78.5472 184.813 78.4725 184.888C78.3978 184.963 78.3072 185 78.2005 185H76.7445Z" fill="black"/>
<rect x="186.5" y="165.5" width="26" height="26" rx="13" fill="#6AD69D" stroke="black"/>
<path d="M214.263 167.923C214.267 167.918 214.271 167.913 214.275 167.907C214.493 167.608 214.751 167.23 214.886 166.849C215.024 166.46 215.076 165.933 214.66 165.517C214.296 165.153 213.832 165.08 213.388 165.205C212.977 165.32 212.58 165.601 212.219 165.945L212.219 165.944L212.211 165.952L199.065 179.069L197.038 177.042C195.993 175.997 194.298 175.997 193.252 177.042C192.206 178.088 192.206 179.783 193.252 180.829L197.171 184.748C198.217 185.794 199.912 185.794 200.958 184.748C200.971 184.734 200.984 184.72 200.996 184.705L214.263 167.923Z" fill="#D99BF9" stroke="black" stroke-linecap="round" stroke-linejoin="round"/>
<g filter="url(#filter5_d_968_4847)">
<rect y="215" width="224" height="47" rx="15" fill="white"/>
<rect x="0.5" y="215.5" width="223" height="46" rx="14.5" stroke="black"/>
</g>
<path d="M25.096 245C24.9893 245 24.8987 244.963 24.824 244.888C24.7493 244.813 24.712 244.723 24.712 244.616V235.768H21.752C21.6453 235.768 21.5547 235.731 21.48 235.656C21.4053 235.581 21.368 235.491 21.368 235.384V234.2C21.368 234.083 21.4053 233.987 21.48 233.912C21.5547 233.837 21.6453 233.8 21.752 233.8H29.912C30.0293 233.8 30.1253 233.837 30.2 233.912C30.2747 233.987 30.312 234.083 30.312 234.2V235.384C30.312 235.491 30.2747 235.581 30.2 235.656C30.1253 235.731 30.0293 235.768 29.912 235.768H26.968V244.616C26.968 244.723 26.9307 244.813 26.856 244.888C26.7813 244.963 26.6853 245 26.568 245H25.096ZM32.722 245.16C32.1673 245.16 31.666 245.053 31.218 244.84C30.77 244.616 30.4127 244.323 30.146 243.96C29.89 243.587 29.762 243.171 29.762 242.712C29.762 241.965 30.0607 241.373 30.658 240.936C31.266 240.488 32.066 240.189 33.058 240.04L35.25 239.72V239.384C35.25 238.936 35.138 238.589 34.914 238.344C34.69 238.099 34.306 237.976 33.762 237.976C33.378 237.976 33.0633 238.056 32.818 238.216C32.5833 238.365 32.4073 238.568 32.29 238.824C32.2047 238.963 32.082 239.032 31.922 239.032H30.658C30.5407 239.032 30.45 239 30.386 238.936C30.3327 238.872 30.306 238.787 30.306 238.68C30.3167 238.509 30.386 238.301 30.514 238.056C30.642 237.811 30.8447 237.576 31.122 237.352C31.3993 237.117 31.7567 236.92 32.194 236.76C32.6313 236.6 33.1593 236.52 33.778 236.52C34.45 236.52 35.0153 236.605 35.474 236.776C35.9433 236.936 36.3167 237.155 36.594 237.432C36.8713 237.709 37.074 238.035 37.202 238.408C37.33 238.781 37.394 239.176 37.394 239.592V244.616C37.394 244.723 37.3567 244.813 37.282 244.888C37.2073 244.963 37.1167 245 37.01 245H35.714C35.5967 245 35.5007 244.963 35.426 244.888C35.362 244.813 35.33 244.723 35.33 244.616V243.992C35.1913 244.195 35.0047 244.387 34.77 244.568C34.5353 244.739 34.2473 244.883 33.906 245C33.5753 245.107 33.1807 245.16 32.722 245.16ZM33.266 243.64C33.6393 243.64 33.9753 243.56 34.274 243.4C34.5833 243.24 34.8233 242.995 34.994 242.664C35.1753 242.323 35.266 241.896 35.266 241.384V241.048L33.666 241.304C33.0367 241.4 32.5673 241.555 32.258 241.768C31.9487 241.981 31.794 242.243 31.794 242.552C31.794 242.787 31.8633 242.989 32.002 243.16C32.1513 243.32 32.338 243.443 32.562 243.528C32.786 243.603 33.0207 243.64 33.266 243.64ZM42.5986 245.16C41.9586 245.16 41.4093 245.085 40.9506 244.936C40.5026 244.787 40.1346 244.6 39.8466 244.376C39.5586 244.152 39.3453 243.928 39.2066 243.704C39.068 243.48 38.9933 243.293 38.9826 243.144C38.972 243.027 39.004 242.936 39.0786 242.872C39.164 242.797 39.2546 242.76 39.3506 242.76H40.6146C40.6573 242.76 40.6946 242.765 40.7266 242.776C40.7586 242.787 40.8013 242.819 40.8546 242.872C40.9933 242.989 41.1373 243.112 41.2866 243.24C41.4466 243.368 41.6333 243.48 41.8466 243.576C42.06 243.661 42.3266 243.704 42.6466 243.704C43.0626 243.704 43.4093 243.624 43.6866 243.464C43.9746 243.293 44.1186 243.053 44.1186 242.744C44.1186 242.52 44.0546 242.339 43.9266 242.2C43.8093 242.061 43.5853 241.939 43.2546 241.832C42.924 241.715 42.4546 241.592 41.8466 241.464C41.2493 241.325 40.7533 241.149 40.3586 240.936C39.964 240.723 39.6706 240.456 39.4786 240.136C39.2866 239.816 39.1906 239.443 39.1906 239.016C39.1906 238.6 39.3133 238.205 39.5586 237.832C39.8146 237.448 40.188 237.133 40.6786 236.888C41.18 236.643 41.7986 236.52 42.5346 236.52C43.1106 236.52 43.612 236.595 44.0386 236.744C44.4653 236.883 44.8173 237.059 45.0946 237.272C45.3826 237.485 45.6013 237.704 45.7506 237.928C45.9 238.141 45.98 238.328 45.9906 238.488C46.0013 238.605 45.9693 238.701 45.8946 238.776C45.82 238.84 45.7346 238.872 45.6386 238.872H44.4546C44.4013 238.872 44.3533 238.861 44.3106 238.84C44.268 238.819 44.2253 238.792 44.1826 238.76C44.0653 238.653 43.9373 238.541 43.7986 238.424C43.66 238.307 43.4893 238.205 43.2866 238.12C43.0946 238.024 42.8386 237.976 42.5186 237.976C42.1133 237.976 41.804 238.067 41.5906 238.248C41.3773 238.419 41.2706 238.637 41.2706 238.904C41.2706 239.085 41.3186 239.245 41.4146 239.384C41.5213 239.512 41.7293 239.635 42.0386 239.752C42.348 239.869 42.8173 239.992 43.4466 240.12C44.1613 240.248 44.7266 240.44 45.1426 240.696C45.5693 240.941 45.868 241.229 46.0386 241.56C46.22 241.88 46.3106 242.237 46.3106 242.632C46.3106 243.112 46.1666 243.544 45.8786 243.928C45.6013 244.312 45.1853 244.616 44.6306 244.84C44.0866 245.053 43.4093 245.16 42.5986 245.16ZM48.3623 245C48.2556 245 48.1649 244.963 48.0903 244.888C48.0156 244.813 47.9783 244.723 47.9783 244.616V234.024C47.9783 233.917 48.0156 233.827 48.0903 233.752C48.1649 233.677 48.2556 233.64 48.3623 233.64H49.6583C49.7756 233.64 49.8663 233.677 49.9303 233.752C50.0049 233.827 50.0423 233.917 50.0423 234.024V239.496L52.7303 236.952C52.8263 236.867 52.9116 236.803 52.9863 236.76C53.0609 236.707 53.1729 236.68 53.3223 236.68H54.8103C54.9169 236.68 55.0023 236.712 55.0663 236.776C55.1303 236.84 55.1623 236.925 55.1623 237.032C55.1623 237.075 55.1516 237.123 55.1302 237.176C55.1089 237.229 55.0663 237.277 55.0023 237.32L51.7063 240.408L55.4023 244.376C55.5089 244.483 55.5623 244.573 55.5623 244.648C55.5623 244.755 55.5249 244.84 55.4503 244.904C55.3863 244.968 55.3063 245 55.2103 245H53.6903C53.5303 245 53.4129 244.979 53.3383 244.936C53.2743 244.883 53.1943 244.813 53.0983 244.728L50.0423 241.512V244.616C50.0423 244.723 50.0049 244.813 49.9303 244.888C49.8663 244.963 49.7756 245 49.6583 245H48.3623ZM61.81 244.376C61.714 244.376 61.6287 244.344 61.554 244.28C61.49 244.216 61.4633 244.136 61.474 244.04L61.73 242.296H60.37C60.2633 242.296 60.1727 242.264 60.098 242.2C60.034 242.125 60.002 242.035 60.002 241.928V241.032C60.002 240.915 60.034 240.824 60.098 240.76C60.1727 240.696 60.2633 240.664 60.37 240.664H61.97L62.338 238.232H60.786C60.6793 238.232 60.5887 238.2 60.514 238.136C60.45 238.061 60.418 237.971 60.418 237.864V236.968C60.418 236.851 60.45 236.76 60.514 236.696C60.5887 236.632 60.6793 236.6 60.786 236.6H62.578L62.85 234.856C62.8713 234.771 62.9087 234.696 62.962 234.632C63.026 234.557 63.1113 234.52 63.218 234.52H64.146C64.242 234.52 64.322 234.552 64.386 234.616C64.45 234.68 64.4767 234.76 64.466 234.856L64.21 236.6H66.21L66.482 234.856C66.5033 234.771 66.5407 234.696 66.594 234.632C66.658 234.557 66.7433 234.52 66.85 234.52H67.778C67.874 234.52 67.954 234.552 68.018 234.616C68.082 234.68 68.1087 234.76 68.098 234.856L67.842 236.6H69.186C69.2927 236.6 69.378 236.632 69.442 236.696C69.5167 236.76 69.554 236.851 69.554 236.968V237.864C69.554 237.971 69.5167 238.061 69.442 238.136C69.378 238.2 69.2927 238.232 69.186 238.232H67.602L67.25 240.664H68.77C68.8767 240.664 68.962 240.696 69.026 240.76C69.1007 240.824 69.138 240.915 69.138 241.032V241.928C69.138 242.035 69.1007 242.125 69.026 242.2C68.962 242.264 68.8767 242.296 68.77 242.296H66.994L66.738 244.04C66.706 244.264 66.5833 244.376 66.37 244.376H65.442C65.346 244.376 65.2607 244.344 65.186 244.28C65.122 244.216 65.0953 244.136 65.106 244.04L65.362 242.296H63.362L63.106 244.04C63.074 244.264 62.9513 244.376 62.738 244.376H61.81ZM63.618 240.664H65.602L65.97 238.232H63.97L63.618 240.664ZM71.4165 245C71.3098 245 71.2192 244.963 71.1445 244.888C71.0698 244.813 71.0325 244.723 71.0325 244.616V243.8C71.0325 243.704 71.0538 243.592 71.0965 243.464C71.1498 243.325 71.2618 243.187 71.4325 243.048L73.9605 240.536C74.6645 239.981 75.2298 239.512 75.6565 239.128C76.0938 238.733 76.4085 238.376 76.6005 238.056C76.8032 237.725 76.9045 237.4 76.9045 237.08C76.9045 236.6 76.7712 236.211 76.5045 235.912C76.2485 235.613 75.8378 235.464 75.2725 235.464C74.8992 235.464 74.5845 235.544 74.3285 235.704C74.0725 235.853 73.8698 236.056 73.7205 236.312C73.5818 236.568 73.4858 236.851 73.4325 237.16C73.4112 237.299 73.3525 237.395 73.2565 237.448C73.1605 237.501 73.0645 237.528 72.9685 237.528H71.5445C71.4485 237.528 71.3685 237.496 71.3045 237.432C71.2405 237.368 71.2085 237.293 71.2085 237.208C71.2192 236.749 71.3152 236.307 71.4965 235.88C71.6778 235.443 71.9392 235.059 72.2805 234.728C72.6325 234.387 73.0592 234.115 73.5605 233.912C74.0618 233.709 74.6272 233.608 75.2565 233.608C76.1418 233.608 76.8725 233.757 77.4485 234.056C78.0352 234.355 78.4725 234.76 78.7605 235.272C79.0592 235.784 79.2085 236.36 79.2085 237C79.2085 237.501 79.1125 237.965 78.9205 238.392C78.7285 238.808 78.4512 239.213 78.0885 239.608C77.7258 239.992 77.2885 240.387 76.7765 240.792L74.5045 243.096H79.0645C79.1818 243.096 79.2725 243.133 79.3365 243.208C79.4112 243.272 79.4485 243.363 79.4485 243.48V244.616C79.4485 244.723 79.4112 244.813 79.3365 244.888C79.2725 244.963 79.1818 245 79.0645 245H71.4165Z" fill="black"/>
<rect x="186.5" y="225.5" width="26" height="26" rx="13" fill="#6AD69D" stroke="black"/>
<path d="M214.263 227.923C214.267 227.918 214.271 227.913 214.275 227.907C214.493 227.608 214.751 227.23 214.886 226.849C215.024 226.46 215.076 225.933 214.66 225.517C214.296 225.153 213.832 225.08 213.388 225.205C212.977 225.32 212.58 225.601 212.219 225.945L212.219 225.944L212.211 225.952L199.065 239.069L197.038 237.042C195.993 235.997 194.298 235.997 193.252 237.042C192.206 238.088 192.206 239.783 193.252 240.829L197.171 244.748C198.217 245.794 199.912 245.794 200.958 244.748C200.971 244.734 200.984 244.72 200.996 244.705L214.263 227.923Z" fill="#D99BF9" stroke="black" stroke-linecap="round" stroke-linejoin="round"/>
<rect x="14" y="230" width="2" height="17" rx="1" fill="#D99BF9"/>
<rect x="10" y="230" width="2" height="17" rx="1" fill="#D99BF9"/>
<g filter="url(#filter6_d_968_4847)">
<rect y="275" width="224" height="47" rx="15" fill="white"/>
<rect x="0.5" y="275.5" width="223" height="46" rx="14.5" stroke="black"/>
</g>
<path d="M25.096 305C24.9893 305 24.8987 304.963 24.824 304.888C24.7493 304.813 24.712 304.723 24.712 304.616V295.768H21.752C21.6453 295.768 21.5547 295.731 21.48 295.656C21.4053 295.581 21.368 295.491 21.368 295.384V294.2C21.368 294.083 21.4053 293.987 21.48 293.912C21.5547 293.837 21.6453 293.8 21.752 293.8H29.912C30.0293 293.8 30.1253 293.837 30.2 293.912C30.2747 293.987 30.312 294.083 30.312 294.2V295.384C30.312 295.491 30.2747 295.581 30.2 295.656C30.1253 295.731 30.0293 295.768 29.912 295.768H26.968V304.616C26.968 304.723 26.9307 304.813 26.856 304.888C26.7813 304.963 26.6853 305 26.568 305H25.096ZM32.722 305.16C32.1673 305.16 31.666 305.053 31.218 304.84C30.77 304.616 30.4127 304.323 30.146 303.96C29.89 303.587 29.762 303.171 29.762 302.712C29.762 301.965 30.0607 301.373 30.658 300.936C31.266 300.488 32.066 300.189 33.058 300.04L35.25 299.72V299.384C35.25 298.936 35.138 298.589 34.914 298.344C34.69 298.099 34.306 297.976 33.762 297.976C33.378 297.976 33.0633 298.056 32.818 298.216C32.5833 298.365 32.4073 298.568 32.29 298.824C32.2047 298.963 32.082 299.032 31.922 299.032H30.658C30.5407 299.032 30.45 299 30.386 298.936C30.3327 298.872 30.306 298.787 30.306 298.68C30.3167 298.509 30.386 298.301 30.514 298.056C30.642 297.811 30.8447 297.576 31.122 297.352C31.3993 297.117 31.7567 296.92 32.194 296.76C32.6313 296.6 33.1593 296.52 33.778 296.52C34.45 296.52 35.0153 296.605 35.474 296.776C35.9433 296.936 36.3167 297.155 36.594 297.432C36.8713 297.709 37.074 298.035 37.202 298.408C37.33 298.781 37.394 299.176 37.394 299.592V304.616C37.394 304.723 37.3567 304.813 37.282 304.888C37.2073 304.963 37.1167 305 37.01 305H35.714C35.5967 305 35.5007 304.963 35.426 304.888C35.362 304.813 35.33 304.723 35.33 304.616V303.992C35.1913 304.195 35.0047 304.387 34.77 304.568C34.5353 304.739 34.2473 304.883 33.906 305C33.5753 305.107 33.1807 305.16 32.722 305.16ZM33.266 303.64C33.6393 303.64 33.9753 303.56 34.274 303.4C34.5833 303.24 34.8233 302.995 34.994 302.664C35.1753 302.323 35.266 301.896 35.266 301.384V301.048L33.666 301.304C33.0367 301.4 32.5673 301.555 32.258 301.768C31.9487 301.981 31.794 302.243 31.794 302.552C31.794 302.787 31.8633 302.989 32.002 303.16C32.1513 303.32 32.338 303.443 32.562 303.528C32.786 303.603 33.0207 303.64 33.266 303.64ZM42.5986 305.16C41.9586 305.16 41.4093 305.085 40.9506 304.936C40.5026 304.787 40.1346 304.6 39.8466 304.376C39.5586 304.152 39.3453 303.928 39.2066 303.704C39.068 303.48 38.9933 303.293 38.9826 303.144C38.972 303.027 39.004 302.936 39.0786 302.872C39.164 302.797 39.2546 302.76 39.3506 302.76H40.6146C40.6573 302.76 40.6946 302.765 40.7266 302.776C40.7586 302.787 40.8013 302.819 40.8546 302.872C40.9933 302.989 41.1373 303.112 41.2866 303.24C41.4466 303.368 41.6333 303.48 41.8466 303.576C42.06 303.661 42.3266 303.704 42.6466 303.704C43.0626 303.704 43.4093 303.624 43.6866 303.464C43.9746 303.293 44.1186 303.053 44.1186 302.744C44.1186 302.52 44.0546 302.339 43.9266 302.2C43.8093 302.061 43.5853 301.939 43.2546 301.832C42.924 301.715 42.4546 301.592 41.8466 301.464C41.2493 301.325 40.7533 301.149 40.3586 300.936C39.964 300.723 39.6706 300.456 39.4786 300.136C39.2866 299.816 39.1906 299.443 39.1906 299.016C39.1906 298.6 39.3133 298.205 39.5586 297.832C39.8146 297.448 40.188 297.133 40.6786 296.888C41.18 296.643 41.7986 296.52 42.5346 296.52C43.1106 296.52 43.612 296.595 44.0386 296.744C44.4653 296.883 44.8173 297.059 45.0946 297.272C45.3826 297.485 45.6013 297.704 45.7506 297.928C45.9 298.141 45.98 298.328 45.9906 298.488C46.0013 298.605 45.9693 298.701 45.8946 298.776C45.82 298.84 45.7346 298.872 45.6386 298.872H44.4546C44.4013 298.872 44.3533 298.861 44.3106 298.84C44.268 298.819 44.2253 298.792 44.1826 298.76C44.0653 298.653 43.9373 298.541 43.7986 298.424C43.66 298.307 43.4893 298.205 43.2866 298.12C43.0946 298.024 42.8386 297.976 42.5186 297.976C42.1133 297.976 41.804 298.067 41.5906 298.248C41.3773 298.419 41.2706 298.637 41.2706 298.904C41.2706 299.085 41.3186 299.245 41.4146 299.384C41.5213 299.512 41.7293 299.635 42.0386 299.752C42.348 299.869 42.8173 299.992 43.4466 300.12C44.1613 300.248 44.7266 300.44 45.1426 300.696C45.5693 300.941 45.868 301.229 46.0386 301.56C46.22 301.88 46.3106 302.237 46.3106 302.632C46.3106 303.112 46.1666 303.544 45.8786 303.928C45.6013 304.312 45.1853 304.616 44.6306 304.84C44.0866 305.053 43.4093 305.16 42.5986 305.16ZM48.3623 305C48.2556 305 48.1649 304.963 48.0903 304.888C48.0156 304.813 47.9783 304.723 47.9783 304.616V294.024C47.9783 293.917 48.0156 293.827 48.0903 293.752C48.1649 293.677 48.2556 293.64 48.3623 293.64H49.6583C49.7756 293.64 49.8663 293.677 49.9303 293.752C50.0049 293.827 50.0423 293.917 50.0423 294.024V299.496L52.7303 296.952C52.8263 296.867 52.9116 296.803 52.9863 296.76C53.0609 296.707 53.1729 296.68 53.3223 296.68H54.8103C54.9169 296.68 55.0023 296.712 55.0663 296.776C55.1303 296.84 55.1623 296.925 55.1623 297.032C55.1623 297.075 55.1516 297.123 55.1302 297.176C55.1089 297.229 55.0663 297.277 55.0023 297.32L51.7063 300.408L55.4023 304.376C55.5089 304.483 55.5623 304.573 55.5623 304.648C55.5623 304.755 55.5249 304.84 55.4503 304.904C55.3863 304.968 55.3063 305 55.2103 305H53.6903C53.5303 305 53.4129 304.979 53.3383 304.936C53.2743 304.883 53.1943 304.813 53.0983 304.728L50.0423 301.512V304.616C50.0423 304.723 50.0049 304.813 49.9303 304.888C49.8663 304.963 49.7756 305 49.6583 305H48.3623ZM61.81 304.376C61.714 304.376 61.6287 304.344 61.554 304.28C61.49 304.216 61.4633 304.136 61.474 304.04L61.73 302.296H60.37C60.2633 302.296 60.1727 302.264 60.098 302.2C60.034 302.125 60.002 302.035 60.002 301.928V301.032C60.002 300.915 60.034 300.824 60.098 300.76C60.1727 300.696 60.2633 300.664 60.37 300.664H61.97L62.338 298.232H60.786C60.6793 298.232 60.5887 298.2 60.514 298.136C60.45 298.061 60.418 297.971 60.418 297.864V296.968C60.418 296.851 60.45 296.76 60.514 296.696C60.5887 296.632 60.6793 296.6 60.786 296.6H62.578L62.85 294.856C62.8713 294.771 62.9087 294.696 62.962 294.632C63.026 294.557 63.1113 294.52 63.218 294.52H64.146C64.242 294.52 64.322 294.552 64.386 294.616C64.45 294.68 64.4767 294.76 64.466 294.856L64.21 296.6H66.21L66.482 294.856C66.5033 294.771 66.5407 294.696 66.594 294.632C66.658 294.557 66.7433 294.52 66.85 294.52H67.778C67.874 294.52 67.954 294.552 68.018 294.616C68.082 294.68 68.1087 294.76 68.098 294.856L67.842 296.6H69.186C69.2927 296.6 69.378 296.632 69.442 296.696C69.5167 296.76 69.554 296.851 69.554 296.968V297.864C69.554 297.971 69.5167 298.061 69.442 298.136C69.378 298.2 69.2927 298.232 69.186 298.232H67.602L67.25 300.664H68.77C68.8767 300.664 68.962 300.696 69.026 300.76C69.1007 300.824 69.138 300.915 69.138 301.032V301.928C69.138 302.035 69.1007 302.125 69.026 302.2C68.962 302.264 68.8767 302.296 68.77 302.296H66.994L66.738 304.04C66.706 304.264 66.5833 304.376 66.37 304.376H65.442C65.346 304.376 65.2607 304.344 65.186 304.28C65.122 304.216 65.0953 304.136 65.106 304.04L65.362 302.296H63.362L63.106 304.04C63.074 304.264 62.9513 304.376 62.738 304.376H61.81ZM63.618 300.664H65.602L65.97 298.232H63.97L63.618 300.664ZM75.2885 305.16C74.5418 305.16 73.8965 305.069 73.3525 304.888C72.8085 304.707 72.3552 304.472 71.9925 304.184C71.6405 303.885 71.3738 303.565 71.1925 303.224C71.0112 302.872 70.9152 302.525 70.9045 302.184C70.9045 302.088 70.9365 302.013 71.0005 301.96C71.0752 301.896 71.1605 301.864 71.2565 301.864H72.6965C72.8032 301.864 72.8938 301.885 72.9685 301.928C73.0432 301.971 73.1072 302.056 73.1605 302.184C73.2565 302.472 73.4112 302.701 73.6245 302.872C73.8485 303.043 74.1045 303.165 74.3925 303.24C74.6805 303.304 74.9845 303.336 75.3045 303.336C75.9445 303.336 76.4512 303.187 76.8245 302.888C77.2085 302.579 77.4005 302.141 77.4005 301.576C77.4005 301.011 77.2245 300.605 76.8725 300.36C76.5205 300.104 76.0298 299.976 75.4005 299.976H73.7525C73.6352 299.976 73.5392 299.944 73.4645 299.88C73.3898 299.805 73.3525 299.709 73.3525 299.592V298.92C73.3525 298.813 73.3738 298.723 73.4165 298.648C73.4698 298.563 73.5232 298.493 73.5765 298.44L76.4405 295.64H71.8645C71.7472 295.64 71.6512 295.603 71.5765 295.528C71.5125 295.453 71.4805 295.363 71.4805 295.256V294.2C71.4805 294.083 71.5125 293.987 71.5765 293.912C71.6512 293.837 71.7472 293.8 71.8645 293.8H78.7285C78.8458 293.8 78.9418 293.837 79.0165 293.912C79.0912 293.987 79.1285 294.083 79.1285 294.2V295.16C79.1285 295.256 79.1072 295.341 79.0645 295.416C79.0218 295.491 78.9738 295.555 78.9205 295.608L76.1525 298.456L76.3445 298.472C76.9952 298.525 77.5712 298.675 78.0725 298.92C78.5845 299.155 78.9792 299.501 79.2565 299.96C79.5445 300.419 79.6885 300.995 79.6885 301.688C79.6885 302.413 79.4965 303.037 79.1125 303.56C78.7392 304.072 78.2218 304.467 77.5605 304.744C76.8992 305.021 76.1418 305.16 75.2885 305.16Z" fill="black"/>
<rect x="186.5" y="285.5" width="26" height="26" rx="13" fill="#8A95F8" fill-opacity="0.15" stroke="black"/>
<rect x="14" y="290" width="2" height="17" rx="1" fill="#D99BF9"/>
<rect x="10" y="290" width="2" height="17" rx="1" fill="#D99BF9"/>
<g filter="url(#filter7_d_968_4847)">
<rect x="417" y="163.634" width="173" height="295.366" rx="15" fill="white"/>
<rect x="417" y="163.634" width="173" height="295.366" rx="15" fill="url(#paint17_linear_968_4847)"/>
<rect x="417.5" y="164.134" width="172" height="294.366" rx="14.5" stroke="black"/>
</g>
<rect x="425.938" y="172.573" width="155.122" height="89.7195" rx="11.5" fill="white" fill-opacity="0.5" stroke="black"/>
<path d="M444.427 186.841L562.573 248.024" stroke="#8A95F8" stroke-width="2" stroke-linecap="round"/>
<path d="M562.573 186.841L444.427 248.024" stroke="#8A95F8" stroke-width="2" stroke-linecap="round"/>
<rect x="425.938" y="271.732" width="155.122" height="36.9756" rx="4.5" fill="white" stroke="black"/>
<rect x="429.104" y="274.896" width="4.27439" height="30.6463" rx="2.1372" fill="#F7D04D" stroke="black"/>
<path d="M440.207 278.616H567.789" stroke="#8084A0" stroke-width="1.5" stroke-linecap="round" stroke-linejoin="round"/>
<path d="M440.207 286H490.841" stroke="#8084A0" stroke-width="1.5" stroke-linecap="round" stroke-linejoin="round"/>
<path d="M440.207 293.384H468.689" stroke="#8084A0" stroke-width="1.5" stroke-linecap="round" stroke-linejoin="round"/>
<path d="M440.207 300.768H478.183" stroke="#8084A0" stroke-width="1.5" stroke-linecap="round" stroke-linejoin="round"/>
<rect x="425.938" y="318.146" width="155.122" height="36.9756" rx="4.5" fill="white" stroke="black"/>
<rect x="429.104" y="321.311" width="4.27439" height="30.6463" rx="2.1372" fill="#F7D04D" stroke="black"/>
<path d="M440.207 325.031H567.789" stroke="#8084A0" stroke-width="1.5" stroke-linecap="round" stroke-linejoin="round"/>
<path d="M440.207 332.415H490.841" stroke="#8084A0" stroke-width="1.5" stroke-linecap="round" stroke-linejoin="round"/>
<path d="M440.207 339.799H468.689" stroke="#8084A0" stroke-width="1.5" stroke-linecap="round" stroke-linejoin="round"/>
<path d="M440.207 347.183H478.183" stroke="#8084A0" stroke-width="1.5" stroke-linecap="round" stroke-linejoin="round"/>
<rect x="425.938" y="364.561" width="155.122" height="36.9756" rx="4.5" fill="white" stroke="black"/>
<rect x="429.104" y="367.726" width="4.27439" height="30.6463" rx="2.1372" fill="#F7D04D" stroke="black"/>
<path d="M440.207 371.445H567.789" stroke="#8084A0" stroke-width="1.5" stroke-linecap="round" stroke-linejoin="round"/>
<path d="M440.207 378.829H490.841" stroke="#8084A0" stroke-width="1.5" stroke-linecap="round" stroke-linejoin="round"/>
<path d="M440.207 386.214H468.689" stroke="#8084A0" stroke-width="1.5" stroke-linecap="round" stroke-linejoin="round"/>
<path d="M440.207 393.598H478.183" stroke="#8084A0" stroke-width="1.5" stroke-linecap="round" stroke-linejoin="round"/>
<rect x="425.938" y="410.976" width="155.122" height="36.9756" rx="4.5" fill="white" stroke="black"/>
<rect x="429.104" y="414.14" width="4.27439" height="30.6463" rx="2.1372" fill="#F7D04D" stroke="black"/>
<path d="M440.207 417.86H567.789" stroke="#8084A0" stroke-width="1.5" stroke-linecap="round" stroke-linejoin="round"/>
<path d="M440.207 425.244H490.841" stroke="#8084A0" stroke-width="1.5" stroke-linecap="round" stroke-linejoin="round"/>
<path d="M440.207 432.628H468.689" stroke="#8084A0" stroke-width="1.5" stroke-linecap="round" stroke-linejoin="round"/>
<path d="M440.207 440.012H478.183" stroke="#8084A0" stroke-width="1.5" stroke-linecap="round" stroke-linejoin="round"/>
<rect x="293.5" y="240.5" width="5" height="23" rx="1.5" fill="#D99BF9" stroke="black"/>
<rect x="293.5" y="290.5" width="5" height="23" rx="1.5" fill="#D99BF9" stroke="black"/>
<rect x="293.5" y="340.5" width="5" height="23" rx="1.5" fill="#D99BF9" stroke="black"/>
<rect x="203.5" y="340.5" width="5" height="23" rx="1.5" fill="#D99BF9" stroke="black"/>
<rect x="383.5" y="240.5" width="5" height="23" rx="1.5" fill="#D99BF9" stroke="black"/>
<rect x="383.5" y="290.5" width="5" height="23" rx="1.5" fill="#D99BF9" stroke="black"/>
<rect x="383.5" y="340.5" width="5" height="23" rx="1.5" fill="#D99BF9" stroke="black"/>
<defs>
<filter id="filter0_d_968_4847" x="83" y="89" width="485" height="303" filterUnits="userSpaceOnUse" color-interpolation-filters="sRGB">
<feFlood flood-opacity="0" result="BackgroundImageFix"/>
<feColorMatrix in="SourceAlpha" type="matrix" values="0 0 0 0 0 0 0 0 0 0 0 0 0 0 0 0 0 0 127 0" result="hardAlpha"/>
<feOffset dx="4" dy="4"/>
<feComposite in2="hardAlpha" operator="out"/>
<feColorMatrix type="matrix" values="0 0 0 0 0 0 0 0 0 0 0 0 0 0 0 0 0 0 1 0"/>
<feBlend mode="normal" in2="BackgroundImageFix" result="effect1_dropShadow_968_4847"/>
<feBlend mode="normal" in="SourceGraphic" in2="effect1_dropShadow_968_4847" result="shape"/>
</filter>
<filter id="filter1_b_968_4847" x="183" y="372" width="366" height="60" filterUnits="userSpaceOnUse" color-interpolation-filters="sRGB">
<feFlood flood-opacity="0" result="BackgroundImageFix"/>
<feGaussianBlur in="BackgroundImageFix" stdDeviation="5"/>
<feComposite in2="SourceAlpha" operator="in" result="effect1_backgroundBlur_968_4847"/>
<feBlend mode="normal" in="SourceGraphic" in2="effect1_backgroundBlur_968_4847" result="shape"/>
</filter>
<filter id="filter2_b_968_4847" x="183" y="422" width="366" height="60" filterUnits="userSpaceOnUse" color-interpolation-filters="sRGB">
<feFlood flood-opacity="0" result="BackgroundImageFix"/>
<feGaussianBlur in="BackgroundImageFix" stdDeviation="5"/>
<feComposite in2="SourceAlpha" operator="in" result="effect1_backgroundBlur_968_4847"/>
<feBlend mode="normal" in="SourceGraphic" in2="effect1_backgroundBlur_968_4847" result="shape"/>
</filter>
<filter id="filter3_b_968_4847" x="183" y="472" width="366" height="60" filterUnits="userSpaceOnUse" color-interpolation-filters="sRGB">
<feFlood flood-opacity="0" result="BackgroundImageFix"/>
<feGaussianBlur in="BackgroundImageFix" stdDeviation="5"/>
<feComposite in2="SourceAlpha" operator="in" result="effect1_backgroundBlur_968_4847"/>
<feBlend mode="normal" in="SourceGraphic" in2="effect1_backgroundBlur_968_4847" result="shape"/>
</filter>
<filter id="filter4_d_968_4847" x="0" y="155" width="228" height="51" filterUnits="userSpaceOnUse" color-interpolation-filters="sRGB">
<feFlood flood-opacity="0" result="BackgroundImageFix"/>
<feColorMatrix in="SourceAlpha" type="matrix" values="0 0 0 0 0 0 0 0 0 0 0 0 0 0 0 0 0 0 127 0" result="hardAlpha"/>
<feOffset dx="4" dy="4"/>
<feComposite in2="hardAlpha" operator="out"/>
<feColorMatrix type="matrix" values="0 0 0 0 0 0 0 0 0 0 0 0 0 0 0 0 0 0 1 0"/>
<feBlend mode="normal" in2="BackgroundImageFix" result="effect1_dropShadow_968_4847"/>
<feBlend mode="normal" in="SourceGraphic" in2="effect1_dropShadow_968_4847" result="shape"/>
</filter>
<filter id="filter5_d_968_4847" x="0" y="215" width="228" height="51" filterUnits="userSpaceOnUse" color-interpolation-filters="sRGB">
<feFlood flood-opacity="0" result="BackgroundImageFix"/>
<feColorMatrix in="SourceAlpha" type="matrix" values="0 0 0 0 0 0 0 0 0 0 0 0 0 0 0 0 0 0 127 0" result="hardAlpha"/>
<feOffset dx="4" dy="4"/>
<feComposite in2="hardAlpha" operator="out"/>
<feColorMatrix type="matrix" values="0 0 0 0 0 0 0 0 0 0 0 0 0 0 0 0 0 0 1 0"/>
<feBlend mode="normal" in2="BackgroundImageFix" result="effect1_dropShadow_968_4847"/>
<feBlend mode="normal" in="SourceGraphic" in2="effect1_dropShadow_968_4847" result="shape"/>
</filter>
<filter id="filter6_d_968_4847" x="0" y="275" width="228" height="51" filterUnits="userSpaceOnUse" color-interpolation-filters="sRGB">
<feFlood flood-opacity="0" result="BackgroundImageFix"/>
<feColorMatrix in="SourceAlpha" type="matrix" values="0 0 0 0 0 0 0 0 0 0 0 0 0 0 0 0 0 0 127 0" result="hardAlpha"/>
<feOffset dx="4" dy="4"/>
<feComposite in2="hardAlpha" operator="out"/>
<feColorMatrix type="matrix" values="0 0 0 0 0 0 0 0 0 0 0 0 0 0 0 0 0 0 1 0"/>
<feBlend mode="normal" in2="BackgroundImageFix" result="effect1_dropShadow_968_4847"/>
<feBlend mode="normal" in="SourceGraphic" in2="effect1_dropShadow_968_4847" result="shape"/>
</filter>
<filter id="filter7_d_968_4847" x="417" y="163.634" width="177" height="299.366" filterUnits="userSpaceOnUse" color-interpolation-filters="sRGB">
<feFlood flood-opacity="0" result="BackgroundImageFix"/>
<feColorMatrix in="SourceAlpha" type="matrix" values="0 0 0 0 0 0 0 0 0 0 0 0 0 0 0 0 0 0 127 0" result="hardAlpha"/>
<feOffset dx="4" dy="4"/>
<feComposite in2="hardAlpha" operator="out"/>
<feColorMatrix type="matrix" values="0 0 0 0 0 0 0 0 0 0 0 0 0 0 0 0 0 0 1 0"/>
<feBlend mode="normal" in2="BackgroundImageFix" result="effect1_dropShadow_968_4847"/>
<feBlend mode="normal" in="SourceGraphic" in2="effect1_dropShadow_968_4847" result="shape"/>
</filter>
<linearGradient id="paint0_linear_968_4847" x1="360.5" y1="1" x2="360.5" y2="592" gradientUnits="userSpaceOnUse">
<stop stop-color="#8A95F8" stop-opacity="0"/>
<stop offset="0.364583" stop-color="#8A95F8"/>
<stop offset="0.619792" stop-color="#8A95F8"/>
<stop offset="1" stop-color="#8A95F8" stop-opacity="0"/>
</linearGradient>
<linearGradient id="paint1_linear_968_4847" x1="373.5" y1="1" x2="373.5" y2="592" gradientUnits="userSpaceOnUse">
<stop stop-color="#8A95F8" stop-opacity="0"/>
<stop offset="0.364583" stop-color="#8A95F8"/>
<stop offset="0.619792" stop-color="#8A95F8"/>
<stop offset="1" stop-color="#8A95F8" stop-opacity="0"/>
</linearGradient>
<linearGradient id="paint2_linear_968_4847" x1="417.5" y1="1" x2="417.5" y2="592" gradientUnits="userSpaceOnUse">
<stop stop-color="#8A95F8" stop-opacity="0"/>
<stop offset="0.364583" stop-color="#8A95F8"/>
<stop offset="0.619792" stop-color="#8A95F8"/>
<stop offset="1" stop-color="#8A95F8" stop-opacity="0"/>
</linearGradient>
<linearGradient id="paint3_linear_968_4847" x1="193.5" y1="1" x2="193.5" y2="592" gradientUnits="userSpaceOnUse">
<stop stop-color="#8A95F8" stop-opacity="0"/>
<stop offset="0.364583" stop-color="#8A95F8"/>
<stop offset="0.619792" stop-color="#8A95F8"/>
<stop offset="1" stop-color="#8A95F8" stop-opacity="0"/>
</linearGradient>
<linearGradient id="paint4_linear_968_4847" x1="103.5" y1="1" x2="103.5" y2="592" gradientUnits="userSpaceOnUse">
<stop stop-color="#8A95F8" stop-opacity="0"/>
<stop offset="0.364583" stop-color="#8A95F8"/>
<stop offset="0.619792" stop-color="#8A95F8"/>
<stop offset="1" stop-color="#8A95F8" stop-opacity="0"/>
</linearGradient>
<linearGradient id="paint5_linear_968_4847" x1="538.5" y1="1" x2="538.5" y2="592" gradientUnits="userSpaceOnUse">
<stop stop-color="#8A95F8" stop-opacity="0"/>
<stop offset="0.364583" stop-color="#8A95F8"/>
<stop offset="0.619792" stop-color="#8A95F8"/>
<stop offset="1" stop-color="#8A95F8" stop-opacity="0"/>
</linearGradient>
<linearGradient id="paint6_linear_968_4847" x1="283.5" y1="1" x2="283.5" y2="592" gradientUnits="userSpaceOnUse">
<stop stop-color="#8A95F8" stop-opacity="0"/>
<stop offset="0.364583" stop-color="#8A95F8"/>
<stop offset="0.619792" stop-color="#8A95F8"/>
<stop offset="1" stop-color="#8A95F8" stop-opacity="0"/>
</linearGradient>
<linearGradient id="paint7_linear_968_4847" x1="323.5" y1="89" x2="323.5" y2="388" gradientUnits="userSpaceOnUse">
<stop stop-color="#8A95F8" stop-opacity="0.45"/>
<stop offset="1" stop-color="#8A95F8" stop-opacity="0.05"/>
</linearGradient>
<linearGradient id="paint8_linear_968_4847" x1="276.5" y1="148" x2="276.5" y2="221" gradientUnits="userSpaceOnUse">
<stop stop-color="#BF9BF9" stop-opacity="0.5"/>
<stop offset="1" stop-color="#8A95F8" stop-opacity="0.05"/>
</linearGradient>
<linearGradient id="paint9_linear_968_4847" x1="455.5" y1="148" x2="455.5" y2="221" gradientUnits="userSpaceOnUse">
<stop stop-color="#BF9BF9" stop-opacity="0.5"/>
<stop offset="1" stop-color="#8A95F8" stop-opacity="0.05"/>
</linearGradient>
<linearGradient id="paint10_linear_968_4847" x1="129.5" y1="131" x2="129.5" y2="145" gradientUnits="userSpaceOnUse">
<stop stop-color="#8A95F8"/>
<stop offset="1" stop-color="#8A95F8"/>
</linearGradient>
<linearGradient id="paint11_linear_968_4847" x1="129.5" y1="154" x2="129.5" y2="168" gradientUnits="userSpaceOnUse">
<stop stop-color="#8A95F8"/>
<stop offset="1" stop-color="#8A95F8"/>
</linearGradient>
<linearGradient id="paint12_linear_968_4847" x1="129.5" y1="177" x2="129.5" y2="191" gradientUnits="userSpaceOnUse">
<stop stop-color="#8A95F8"/>
<stop offset="1" stop-color="#8A95F8"/>
</linearGradient>
<linearGradient id="paint13_linear_968_4847" x1="129.5" y1="200" x2="129.5" y2="214" gradientUnits="userSpaceOnUse">
<stop stop-color="#8A95F8"/>
<stop offset="1" stop-color="#8A95F8"/>
</linearGradient>
<linearGradient id="paint14_linear_968_4847" x1="129.5" y1="223" x2="129.5" y2="237" gradientUnits="userSpaceOnUse">
<stop stop-color="#8A95F8"/>
<stop offset="1" stop-color="#8A95F8"/>
</linearGradient>
<linearGradient id="paint15_linear_968_4847" x1="129.5" y1="246" x2="129.5" y2="260" gradientUnits="userSpaceOnUse">
<stop stop-color="#8A95F8"/>
<stop offset="1" stop-color="#8A95F8"/>
</linearGradient>
<linearGradient id="paint16_linear_968_4847" x1="129.5" y1="269" x2="129.5" y2="283" gradientUnits="userSpaceOnUse">
<stop stop-color="#8A95F8"/>
<stop offset="1" stop-color="#8A95F8"/>
</linearGradient>
<linearGradient id="paint17_linear_968_4847" x1="503.5" y1="163.634" x2="503.5" y2="459" gradientUnits="userSpaceOnUse">
<stop stop-color="#D99BF9" stop-opacity="0.5"/>
<stop offset="1" stop-color="#8A95F8" stop-opacity="0.95"/>
</linearGradient>
</defs>
</svg>
